<svg width="728" height="468" viewBox="0 0 728 468" fill="none" xmlns="http://www.w3.org/2000/svg">
<g clip-path="url(#clip0_1_53)">
<path d="M394.7 7C396.633 7 398.2 5.433 398.2 3.5C398.2 1.567 396.633 0 394.7 0C392.767 0 391.2 1.567 391.2 3.5C391.2 5.433 392.767 7 394.7 7Z" fill="black"/>
<path d="M462.6 180.6L458.3 85.7C458.3 84.7 457.5 83.9 456.5 83.8C455.5 83.7 454.6 84.4 454.4 85.3L439.8 146.9L416.7 70C416.1 68 414.3 66.7 412.2 66.9C411.2 67 410.3 67.4 409.7 68L383.9 15.3C383 13.5 381.3 12.4 379.3 12.3C377.4 12.2 375.5 13.2 374.5 14.9L371 20.9L364.2 3.5C364.2 3.4 364.1 3.3 364 3.2C362.8 1.2 360.7 0.0999995 358.3 0.3C356 0.5 354 1.9 353.1 4L327.5 65.4L326.5 60.5C326 58.3 324.2 56.8 322 56.8C319.8 56.8 317.9 58.3 317.5 60.5L296.4 160.5L279.1 129.4C278.6 128.6 277.7 128.2 276.8 128.5C275.9 128.8 275.3 129.7 275.4 130.6L283.3 215.7C283.7 219.7 285.8 223.3 289.3 225.5L375.6 280.7C375.7 280.8 375.9 280.8 376 280.9H376.1C376.3 280.9 376.4 281 376.6 281H376.7C376.8 281 376.8 281 376.9 281H377C377.1 281 377.2 280.9 377.3 280.9H377.4C377.5 280.9 377.6 280.8 377.6 280.8C377.6 280.8 377.6 280.8 377.7 280.7C377.8 280.7 377.8 280.6 377.9 280.5L454.4 202C460 196.2 463 188.4 462.6 180.6ZM332.1 86.6L331.7 84.7L332.2 86.4L332.1 86.6ZM412.5 70.9C412.8 70.9 412.8 71.1 412.9 71.2L437 151.3C431 164.5 405.7 217.8 389.8 251.2L380.6 267.7L403 137.3L411.9 73.4L412.2 71.3C412.2 71.1 412.2 71 412.5 70.9ZM377.9 16.9C378.3 16.3 378.8 16.2 379.1 16.3C379.3 16.3 379.9 16.4 380.2 17L407.8 73.4L399 136.7L376.2 269.3L375 264.7L368.7 206.5L333.2 92.5V92.4L377.9 16.9ZM356.9 5.5C357.2 4.8 357.9 4.3 358.7 4.2C359.4 4.1 360.1 4.5 360.6 5.1L368.4 25.2L365.4 30.2L330.1 76.8L329.1 72.2L356.9 5.5ZM321.5 61.3C321.6 61 321.8 60.8 322.1 60.8C322.4 60.8 322.6 61 322.7 61.3L337.9 133.5L372.3 269.9L362.1 256.4L300.3 161.3L321.5 61.3ZM291.4 222C289 220.5 287.5 218 287.3 215.2L280.3 139.6L312.9 198.2C312.9 198.3 313 198.4 313.1 198.4L368.4 271L291.4 222ZM451.7 199L385.8 266.6L437.4 174.3C437.5 174.1 437.6 174 437.6 173.8L455 100.1L458.6 180.7C458.9 187.5 456.4 194.2 451.7 199Z" fill="black"/>
<path d="M289.044 117.546C291.732 116.911 293.396 114.218 292.761 111.531C292.127 108.843 289.434 107.179 286.746 107.814C284.059 108.448 282.395 111.141 283.029 113.829C283.664 116.516 286.357 118.18 289.044 117.546Z" fill="black"/>
<path d="M435.9 101.7C437.7 101.7 439.2 100.2 439.2 98.4C439.2 96.6 437.7 95.1 435.9 95.1C434.1 95.1 432.6 96.6 432.6 98.4C432.6 100.2 434 101.7 435.9 101.7Z" fill="black"/>
<path d="M383.6 156.2C387.466 156.2 390.6 153.066 390.6 149.2C390.6 145.334 387.466 142.2 383.6 142.2C379.734 142.2 376.6 145.334 376.6 149.2C376.6 153.066 379.734 156.2 383.6 156.2Z" fill="black"/>
<path d="M319.3 39.9C320.8 39.9 322 38.7 322 37.2C322 35.7 320.8 34.5 319.3 34.5C317.8 34.5 316.6 35.7 316.6 37.2C316.6 38.7 317.8 39.9 319.3 39.9Z" fill="black"/>
<path d="M334.9 183.3C336.281 183.3 337.4 182.181 337.4 180.8C337.4 179.419 336.281 178.3 334.9 178.3C333.519 178.3 332.4 179.419 332.4 180.8C332.4 182.181 333.519 183.3 334.9 183.3Z" fill="black"/>
<path d="M394.7 7C396.633 7 398.2 5.433 398.2 3.5C398.2 1.567 396.633 0 394.7 0C392.767 0 391.2 1.567 391.2 3.5C391.2 5.433 392.767 7 394.7 7Z" fill="black"/>
<path d="M0 396.5L24.8 340.6H31.2L56.4 396.5H48.8L41.9 380.6L45.1 382.5H11L14.5 380.6L7.6 396.5H0ZM27.9 348.8L15.5 378.2L13.6 376.5H42.4L40.9 378.2L28.2 348.8H27.9Z" fill="black"/>
<path d="M72.2 396.5V340.6H77.9L113 386.9H111.1V340.6H118V396.5H112.4L77.3 350.2H79.1V396.5H72.2Z" fill="black"/>
<path d="M133.8 396.5L158.6 340.6H165L190.2 396.5H182.6L175.7 380.6L178.9 382.5H144.9L148.4 380.6L141.5 396.5H133.8ZM161.7 348.8L149.3 378.2L147.4 376.5H176.2L174.7 378.2L162 348.8H161.7Z" fill="black"/>
<path d="M223.9 397.2C219.4 397.2 215.4 396.6 211.8 395.5C208.2 394.3 205.1 392.7 202.4 390.6L204.9 384.7C206.8 386.1 208.6 387.2 210.5 388.2C212.4 389.1 214.5 389.8 216.7 390.3C218.9 390.8 221.3 391 223.9 391C228.5 391 231.9 390.2 234.1 388.5C236.3 386.8 237.4 384.6 237.4 381.9C237.4 379.5 236.6 377.7 235.1 376.4C233.6 375.1 230.9 374.1 227.1 373.4L218.6 371.7C213.5 370.6 209.6 368.9 207.1 366.5C204.6 364.1 203.3 360.8 203.3 356.7C203.3 353.4 204.2 350.4 206 347.9C207.8 345.4 210.2 343.4 213.4 342.1C216.5 340.7 220.2 340 224.5 340C228.4 340 232 340.6 235.4 341.7C238.7 342.9 241.5 344.6 243.8 346.9L241.3 352.5C238.9 350.3 236.4 348.8 233.6 347.8C230.9 346.8 227.8 346.3 224.4 346.3C220.2 346.3 216.9 347.2 214.5 349C212.1 350.8 210.8 353.2 210.8 356.3C210.8 358.7 211.6 360.7 213.1 362.1C214.6 363.5 217.2 364.6 220.7 365.3L229.2 367C234.6 368.1 238.6 369.7 241.1 372C243.6 374.3 244.9 377.4 244.9 381.4C244.9 384.6 244.1 387.4 242.4 389.8C240.7 392.2 238.3 394.1 235.2 395.4C231.9 396.6 228.2 397.2 223.9 397.2Z" fill="black"/>
<path d="M275.4 396.5V346.8H256V340.5H302.3V346.8H282.9V396.5H275.4Z" fill="black"/>
<path d="M306.3 396.5L331.1 340.6H337.5L362.7 396.5H355L348.1 380.6L351.3 382.5H317.3L320.8 380.6L313.9 396.5H306.3ZM334.2 348.8L321.8 378.2L319.9 376.5H348.7L347.2 378.2L334.5 348.8H334.2Z" fill="black"/>
<path d="M396.5 397.2C392 397.2 388 396.6 384.4 395.5C380.8 394.3 377.7 392.7 375 390.6L377.5 384.7C379.4 386.1 381.2 387.2 383.1 388.2C385 389.1 387.1 389.8 389.3 390.3C391.5 390.8 393.9 391 396.5 391C401.1 391 404.5 390.2 406.7 388.5C408.9 386.8 410 384.6 410 381.9C410 379.5 409.2 377.7 407.7 376.4C406.2 375.1 403.5 374.1 399.7 373.4L391.2 371.7C386.1 370.6 382.2 368.9 379.7 366.5C377.2 364.1 375.9 360.8 375.9 356.7C375.9 353.4 376.8 350.4 378.6 347.9C380.4 345.4 382.8 343.4 386 342.1C389.1 340.7 392.8 340 397.1 340C401 340 404.6 340.6 408 341.7C411.3 342.9 414.1 344.6 416.4 346.9L413.9 352.5C411.5 350.3 409 348.8 406.2 347.8C403.5 346.8 400.4 346.3 397 346.3C392.8 346.3 389.5 347.2 387.1 349C384.7 350.8 383.4 353.2 383.4 356.3C383.4 358.7 384.2 360.7 385.7 362.1C387.2 363.5 389.8 364.6 393.3 365.3L401.8 367C407.2 368.1 411.2 369.7 413.7 372C416.2 374.3 417.5 377.4 417.5 381.4C417.5 384.6 416.7 387.4 415 389.8C413.3 392.2 410.9 394.1 407.8 395.4C404.5 396.6 400.8 397.2 396.5 397.2Z" fill="black"/>
<path d="M435.8 396.5V340.6H443.2V396.5H435.8Z" fill="black"/>
<path d="M458.9 396.5L483.7 340.6H490.1L515.3 396.5H507.7L500.8 380.6L504 382.5H470L473.5 380.6L466.6 396.5H458.9ZM486.8 348.8L474.4 378.2L472.5 376.5H501.3L499.8 378.2L487.1 348.8H486.8Z" fill="black"/>
<path d="M584.7 397.2C579.1 397.2 574.3 396 570.3 393.7C566.3 391.4 563.2 388.1 561.1 383.7C559 379.4 557.9 374.3 557.9 368.4C557.9 362.5 559 357.4 561.1 353.2C563.2 348.9 566.3 345.6 570.3 343.3C574.3 341 579.1 339.8 584.7 339.8C588.7 339.8 592.3 340.4 595.4 341.6C598.5 342.8 601.2 344.5 603.6 346.8L600.9 352.8C598.4 350.6 595.9 349 593.4 348C590.9 347 588.1 346.5 584.9 346.5C578.7 346.5 574 348.4 570.7 352.2C567.4 356 565.8 361.4 565.8 368.5C565.8 373.2 566.5 377.1 568 380.4C569.5 383.7 571.6 386.2 574.5 387.9C577.4 389.6 580.8 390.5 585 390.5C588.2 390.5 591.1 390 593.5 389C596 388 598.5 386.4 601 384.2L603.7 390.1C601.4 392.4 598.6 394.1 595.5 395.3C592.2 396.6 588.7 397.2 584.7 397.2Z" fill="black"/>
<path d="M622.3 396.5V340.6H629.7V365H662.2V340.6H669.7V396.5H662.2V371.3H629.7V396.5H622.3Z" fill="black"/>
<path d="M691.2 396.5V340.6H727.4V346.6H698.4V365.1H725.6V371.1H698.4V390.5H727.4V396.5H691.2Z" fill="black"/>
<path d="M281 466.9V442.2H289.4C292.2 442.2 294.5 442.7 296.4 443.6C298.3 444.6 299.7 446 300.7 447.8C301.7 449.6 302.2 451.9 302.2 454.5C302.2 457.1 301.7 459.4 300.7 461.2C299.7 463 298.3 464.4 296.4 465.4C294.5 466.4 292.2 466.8 289.4 466.8H281V466.9ZM284.2 464.1H289.1C292.4 464.1 294.8 463.3 296.4 461.7C298 460.1 298.8 457.7 298.8 454.5C298.8 451.3 298 448.9 296.4 447.3C294.8 445.7 292.4 444.9 289.1 444.9H284.2V464.1Z" fill="black"/>
<path d="M316 466.9V442.2H332V444.9H319.2V453.1H331.2V455.8H319.2V464.3H332V467H316V466.9Z" fill="black"/>
<path d="M353.2 467.2C351.2 467.2 349.4 466.9 347.8 466.4C346.2 465.9 344.8 465.2 343.7 464.2L344.8 461.6C345.6 462.2 346.4 462.7 347.3 463.1C348.2 463.5 349 463.8 350 464C351 464.2 352 464.3 353.2 464.3C355.2 464.3 356.7 463.9 357.7 463.2C358.7 462.5 359.2 461.5 359.2 460.3C359.2 459.3 358.9 458.4 358.2 457.9C357.5 457.3 356.3 456.9 354.7 456.6L351 455.8C348.7 455.3 347 454.6 345.9 453.5C344.8 452.4 344.2 451 344.2 449.2C344.2 447.7 344.6 446.4 345.4 445.3C346.2 444.2 347.3 443.3 348.7 442.7C350.1 442.1 351.7 441.8 353.6 441.8C355.3 441.8 356.9 442.1 358.4 442.6C359.9 443.1 361.1 443.9 362.1 444.9L361 447.4C360 446.4 358.8 445.7 357.6 445.3C356.4 444.9 355 444.7 353.5 444.7C351.7 444.7 350.2 445.1 349.1 445.9C348 446.7 347.5 447.8 347.5 449.1C347.5 450.2 347.8 451 348.5 451.6C349.2 452.2 350.3 452.7 351.9 453L355.6 453.7C358 454.2 359.7 454.9 360.8 455.9C361.9 456.9 362.5 458.3 362.5 460.1C362.5 461.5 362.1 462.7 361.4 463.8C360.7 464.9 359.6 465.7 358.2 466.3C356.7 466.9 355.1 467.2 353.2 467.2Z" fill="black"/>
<path d="M375.7 466.9V442.2H379V466.9H375.7Z" fill="black"/>
<path d="M405.2 467.2C402.5 467.2 400.2 466.7 398.4 465.7C396.6 464.7 395.2 463.2 394.3 461.3C393.4 459.4 392.9 457.2 392.9 454.5C392.9 451.9 393.4 449.6 394.4 447.7C395.4 445.8 396.8 444.4 398.6 443.3C400.4 442.3 402.6 441.8 405.2 441.8C407 441.8 408.6 442.1 409.9 442.6C411.2 443.1 412.4 443.9 413.5 444.8L412.3 447.4C411.6 446.7 410.8 446.2 410.1 445.8C409.4 445.4 408.7 445.1 407.9 444.9C407.1 444.7 406.2 444.6 405.2 444.6C402.3 444.6 400.1 445.5 398.6 447.2C397.1 448.9 396.3 451.3 396.3 454.4C396.3 457.6 397 460 398.5 461.6C400 463.3 402.3 464.1 405.4 464.1C406.5 464.1 407.6 464 408.6 463.8C409.6 463.6 410.7 463.3 411.6 462.9L410.9 464.5V456.1H404.7V453.6H413.7V465.1C413 465.4 412.2 465.8 411.2 466C410.3 466.3 409.3 466.5 408.2 466.6C407.2 467.1 406.2 467.2 405.2 467.2Z" fill="black"/>
<path d="M428.1 466.9V442.2H430.6L446.1 462.6H445.3V442.2H448.3V466.9H445.8L430.3 446.5H431.1V466.9H428.1Z" fill="black"/>
<path d="M531.3 376.6C535.221 376.6 538.4 373.421 538.4 369.5C538.4 365.579 535.221 362.4 531.3 362.4C527.379 362.4 524.2 365.579 524.2 369.5C524.2 373.421 527.379 376.6 531.3 376.6Z" fill="black"/>
</g>
<defs>
<clipPath id="clip0_1_53">
<rect width="727.4" height="467.2" fill="white"/>
</clipPath>
</defs>
</svg>
