<svg width="983" height="281" viewBox="0 0 983 281" fill="none" xmlns="http://www.w3.org/2000/svg">
<g clip-path="url(#clip0_1_55)">
<path d="M215.211 180.6L210.911 85.7C210.911 84.7 210.111 83.9 209.111 83.8C208.111 83.7 207.211 84.4 207.011 85.3L192.411 146.9L169.311 70C168.711 68 166.911 66.7 164.811 66.9C163.811 67 162.911 67.4 162.311 68L136.511 15.3C135.611 13.5 133.911 12.4 131.911 12.3C130.011 12.2 128.111 13.2 127.111 14.9L123.611 20.9L116.811 3.5C116.811 3.4 116.711 3.3 116.611 3.2C115.411 1.2 113.311 0.0999957 110.911 0.299996C108.611 0.499996 106.611 1.9 105.711 4L80.1109 65.4L79.1109 60.5C78.6109 58.3 76.8109 56.8 74.6109 56.8C72.4109 56.8 70.5109 58.3 70.1109 60.5L49.0109 160.5L31.7109 129.4C31.2109 128.6 30.3109 128.2 29.4109 128.5C28.5109 128.8 27.9109 129.7 28.0109 130.6L35.9109 215.7C36.3109 219.7 38.4109 223.3 41.9109 225.5L128.211 280.7C128.311 280.8 128.511 280.8 128.611 280.9H128.711C128.911 280.9 129.011 281 129.211 281H129.311C129.411 281 129.411 281 129.511 281H129.611C129.711 281 129.811 280.9 129.911 280.9H130.011C130.111 280.9 130.211 280.8 130.211 280.8C130.211 280.8 130.211 280.8 130.311 280.7C130.411 280.7 130.411 280.6 130.511 280.5L207.011 202C212.611 196.2 215.611 188.4 215.211 180.6ZM84.7109 86.6L84.3109 84.7L84.8109 86.4L84.7109 86.6ZM165.111 70.9C165.411 70.9 165.411 71.1 165.511 71.2L189.611 151.3C183.611 164.5 158.311 217.8 142.411 251.2L133.211 267.7L155.611 137.3L164.511 73.4L164.811 71.3C164.811 71.1 164.811 71 165.111 70.9ZM130.511 16.9C130.911 16.3 131.411 16.2 131.711 16.3C131.911 16.3 132.511 16.4 132.811 17L160.411 73.4L151.611 136.7L128.811 269.3L127.611 264.7L121.311 206.5L85.8109 92.5V92.4L130.511 16.9ZM109.511 5.5C109.811 4.8 110.511 4.3 111.311 4.2C112.011 4.1 112.711 4.5 113.211 5.1L121.011 25.2L118.011 30.2L82.7109 76.8L81.7109 72.2L109.511 5.5ZM74.1109 61.3C74.2109 61 74.4109 60.8 74.7109 60.8C75.0109 60.8 75.2109 61 75.3109 61.3L90.5109 133.5L124.911 269.9L114.711 256.4L52.9109 161.3L74.1109 61.3ZM44.0109 222C41.6109 220.5 40.1109 218 39.9109 215.2L32.9109 139.6L65.5109 198.2C65.5109 198.3 65.6109 198.4 65.7109 198.4L121.011 271L44.0109 222ZM204.311 199L138.411 266.6L190.011 174.3C190.111 174.1 190.211 174 190.211 173.8L207.611 100.1L211.211 180.7C211.511 187.5 209.011 194.2 204.311 199Z" fill="black"/>
<path d="M41.6553 117.546C44.3427 116.911 46.0069 114.218 45.3723 111.531C44.7377 108.843 42.0447 107.179 39.3573 107.814C36.6699 108.448 35.0057 111.141 35.6403 113.829C36.2749 116.516 38.9679 118.18 41.6553 117.546Z" fill="black"/>
<path d="M188.511 101.7C190.311 101.7 191.811 100.2 191.811 98.4C191.811 96.6 190.311 95.1 188.511 95.1C186.711 95.1 185.211 96.6 185.211 98.4C185.211 100.2 186.611 101.7 188.511 101.7Z" fill="black"/>
<path d="M136.211 156.2C140.077 156.2 143.211 153.066 143.211 149.2C143.211 145.334 140.077 142.2 136.211 142.2C132.345 142.2 129.211 145.334 129.211 149.2C129.211 153.066 132.345 156.2 136.211 156.2Z" fill="black"/>
<path d="M71.9109 39.9C73.4109 39.9 74.6109 38.7 74.6109 37.2C74.6109 35.7 73.4109 34.5 71.9109 34.5C70.4109 34.5 69.2109 35.7 69.2109 37.2C69.2109 38.7 70.4109 39.9 71.9109 39.9Z" fill="black"/>
<path d="M87.5109 183.3C88.8916 183.3 90.0109 182.181 90.0109 180.8C90.0109 179.419 88.8916 178.3 87.5109 178.3C86.1302 178.3 85.0109 179.419 85.0109 180.8C85.0109 182.181 86.1302 183.3 87.5109 183.3Z" fill="black"/>
<path d="M147.311 7C149.244 7 150.811 5.433 150.811 3.5C150.811 1.567 149.244 0 147.311 0C145.378 0 143.811 1.567 143.811 3.5C143.811 5.433 145.378 7 147.311 7Z" fill="black"/>
<path d="M147.311 7C149.244 7 150.811 5.433 150.811 3.5C150.811 1.567 149.244 0 147.311 0C145.378 0 143.811 1.567 143.811 3.5C143.811 5.433 145.378 7 147.311 7Z" fill="black"/>
<path d="M256 155.5L280.8 99.6H287.2L312.4 155.5H304.8L297.9 139.6L301.1 141.5H267L270.5 139.6L263.6 155.5H256ZM283.9 107.8L271.5 137.2L269.6 135.5H298.4L296.9 137.2L284.2 107.8H283.9Z" fill="black"/>
<path d="M328.2 155.5V99.6H333.9L369 145.9H367.1V99.6H374V155.5H368.4L333.3 109.2H335.1V155.5H328.2Z" fill="black"/>
<path d="M389.8 155.5L414.6 99.6H421L446.2 155.5H438.6L431.7 139.6L434.9 141.5H400.9L404.4 139.6L397.5 155.5H389.8ZM417.7 107.8L405.3 137.2L403.4 135.5H432.2L430.7 137.2L418 107.8H417.7Z" fill="black"/>
<path d="M479.9 156.2C475.4 156.2 471.4 155.6 467.8 154.5C464.2 153.3 461.1 151.7 458.4 149.6L460.9 143.7C462.8 145.1 464.6 146.2 466.5 147.2C468.4 148.1 470.5 148.8 472.7 149.3C474.9 149.8 477.3 150 479.9 150C484.5 150 487.9 149.2 490.1 147.5C492.3 145.8 493.4 143.6 493.4 140.9C493.4 138.5 492.6 136.7 491.1 135.4C489.6 134.1 486.9 133.1 483.1 132.4L474.6 130.7C469.5 129.6 465.6 127.9 463.1 125.5C460.6 123.1 459.3 119.8 459.3 115.7C459.3 112.4 460.2 109.4 462 106.9C463.8 104.4 466.2 102.4 469.4 101.1C472.5 99.7 476.2 99 480.5 99C484.4 99 488 99.6 491.4 100.7C494.7 101.9 497.5 103.6 499.8 105.9L497.3 111.5C494.9 109.3 492.4 107.8 489.6 106.8C486.9 105.8 483.8 105.3 480.4 105.3C476.2 105.3 472.9 106.2 470.5 108C468.1 109.8 466.8 112.2 466.8 115.3C466.8 117.7 467.6 119.7 469.1 121.1C470.6 122.5 473.2 123.6 476.7 124.3L485.2 126C490.6 127.1 494.6 128.7 497.1 131C499.6 133.3 500.9 136.4 500.9 140.4C500.9 143.6 500.1 146.4 498.4 148.8C496.7 151.2 494.3 153.1 491.2 154.4C487.9 155.6 484.2 156.2 479.9 156.2Z" fill="black"/>
<path d="M531.4 155.5V105.8H512V99.5H558.3V105.8H538.9V155.5H531.4Z" fill="black"/>
<path d="M562.3 155.5L587.1 99.6H593.5L618.7 155.5H611L604.1 139.6L607.3 141.5H573.3L576.8 139.6L569.9 155.5H562.3ZM590.2 107.8L577.8 137.2L575.9 135.5H604.7L603.2 137.2L590.5 107.8H590.2Z" fill="black"/>
<path d="M652.5 156.2C648 156.2 644 155.6 640.4 154.5C636.8 153.3 633.7 151.7 631 149.6L633.5 143.7C635.4 145.1 637.2 146.2 639.1 147.2C641 148.1 643.1 148.8 645.3 149.3C647.5 149.8 649.9 150 652.5 150C657.1 150 660.5 149.2 662.7 147.5C664.9 145.8 666 143.6 666 140.9C666 138.5 665.2 136.7 663.7 135.4C662.2 134.1 659.5 133.1 655.7 132.4L647.2 130.7C642.1 129.6 638.2 127.9 635.7 125.5C633.2 123.1 631.9 119.8 631.9 115.7C631.9 112.4 632.8 109.4 634.6 106.9C636.4 104.4 638.8 102.4 642 101.1C645.1 99.7 648.8 99 653.1 99C657 99 660.6 99.6 664 100.7C667.3 101.9 670.1 103.6 672.4 105.9L669.9 111.5C667.5 109.3 665 107.8 662.2 106.8C659.5 105.8 656.4 105.3 653 105.3C648.8 105.3 645.5 106.2 643.1 108C640.7 109.8 639.4 112.2 639.4 115.3C639.4 117.7 640.2 119.7 641.7 121.1C643.2 122.5 645.8 123.6 649.3 124.3L657.8 126C663.2 127.1 667.2 128.7 669.7 131C672.2 133.3 673.5 136.4 673.5 140.4C673.5 143.6 672.7 146.4 671 148.8C669.3 151.2 666.9 153.1 663.8 154.4C660.5 155.6 656.8 156.2 652.5 156.2Z" fill="black"/>
<path d="M691.8 155.5V99.6H699.2V155.5H691.8Z" fill="black"/>
<path d="M714.9 155.5L739.7 99.6H746.1L771.3 155.5H763.7L756.8 139.6L760 141.5H726L729.5 139.6L722.6 155.5H714.9ZM742.8 107.8L730.4 137.2L728.5 135.5H757.3L755.8 137.2L743.1 107.8H742.8Z" fill="black"/>
<path d="M840.7 156.2C835.1 156.2 830.3 155 826.3 152.7C822.3 150.4 819.2 147.1 817.1 142.7C815 138.4 813.9 133.3 813.9 127.4C813.9 121.5 815 116.4 817.1 112.2C819.2 107.9 822.3 104.6 826.3 102.3C830.3 100 835.1 98.8 840.7 98.8C844.7 98.8 848.3 99.4 851.4 100.6C854.5 101.8 857.2 103.5 859.6 105.8L856.9 111.8C854.4 109.6 851.9 108 849.4 107C846.9 106 844.1 105.5 840.9 105.5C834.7 105.5 830 107.4 826.7 111.2C823.4 115 821.8 120.4 821.8 127.5C821.8 132.2 822.5 136.1 824 139.4C825.5 142.7 827.6 145.2 830.5 146.9C833.4 148.6 836.8 149.5 841 149.5C844.2 149.5 847.1 149 849.5 148C852 147 854.5 145.4 857 143.2L859.7 149.1C857.4 151.4 854.6 153.1 851.5 154.3C848.2 155.6 844.7 156.2 840.7 156.2Z" fill="black"/>
<path d="M878.3 155.5V99.6H885.7V124H918.2V99.6H925.7V155.5H918.2V130.3H885.7V155.5H878.3Z" fill="black"/>
<path d="M947.2 155.5V99.6H983.4V105.6H954.4V124.1H981.6V130.1H954.4V149.5H983.4V155.5H947.2Z" fill="black"/>
<path d="M256 225.9V201.2H264.4C267.2 201.2 269.5 201.7 271.4 202.6C273.3 203.6 274.7 205 275.7 206.8C276.7 208.6 277.2 210.9 277.2 213.5C277.2 216.1 276.7 218.4 275.7 220.2C274.7 222 273.3 223.4 271.4 224.4C269.5 225.4 267.2 225.8 264.4 225.8H256V225.9ZM259.2 223.1H264.1C267.4 223.1 269.8 222.3 271.4 220.7C273 219.1 273.8 216.7 273.8 213.5C273.8 210.3 273 207.9 271.4 206.3C269.8 204.7 267.4 203.9 264.1 203.9H259.2V223.1Z" fill="black"/>
<path d="M291 225.9V201.2H307V203.9H294.2V212.1H306.2V214.8H294.2V223.3H307V226H291V225.9Z" fill="black"/>
<path d="M328.2 226.2C326.2 226.2 324.4 225.9 322.8 225.4C321.2 224.9 319.8 224.2 318.7 223.2L319.8 220.6C320.6 221.2 321.4 221.7 322.3 222.1C323.2 222.5 324 222.8 325 223C326 223.2 327 223.3 328.2 223.3C330.2 223.3 331.7 222.9 332.7 222.2C333.7 221.5 334.2 220.5 334.2 219.3C334.2 218.3 333.9 217.4 333.2 216.9C332.5 216.3 331.3 215.9 329.7 215.6L326 214.8C323.7 214.3 322 213.6 320.9 212.5C319.8 211.4 319.2 210 319.2 208.2C319.2 206.7 319.6 205.4 320.4 204.3C321.2 203.2 322.3 202.3 323.7 201.7C325.1 201.1 326.7 200.8 328.6 200.8C330.3 200.8 331.9 201.1 333.4 201.6C334.9 202.1 336.1 202.9 337.1 203.9L336 206.4C335 205.4 333.8 204.7 332.6 204.3C331.4 203.9 330 203.7 328.5 203.7C326.7 203.7 325.2 204.1 324.1 204.9C323 205.7 322.5 206.8 322.5 208.1C322.5 209.2 322.8 210 323.5 210.6C324.2 211.2 325.3 211.7 326.9 212L330.6 212.7C333 213.2 334.7 213.9 335.8 214.9C336.9 215.9 337.5 217.3 337.5 219.1C337.5 220.5 337.1 221.7 336.4 222.8C335.7 223.9 334.6 224.7 333.2 225.3C331.7 225.9 330.1 226.2 328.2 226.2Z" fill="black"/>
<path d="M350.7 225.9V201.2H354V225.9H350.7Z" fill="black"/>
<path d="M380.2 226.2C377.5 226.2 375.2 225.7 373.4 224.7C371.6 223.7 370.2 222.2 369.3 220.3C368.4 218.4 367.9 216.2 367.9 213.5C367.9 210.9 368.4 208.6 369.4 206.7C370.4 204.8 371.8 203.4 373.6 202.3C375.4 201.3 377.6 200.8 380.2 200.8C382 200.8 383.6 201.1 384.9 201.6C386.2 202.1 387.4 202.9 388.5 203.8L387.3 206.4C386.6 205.7 385.8 205.2 385.1 204.8C384.4 204.4 383.7 204.1 382.9 203.9C382.1 203.7 381.2 203.6 380.2 203.6C377.3 203.6 375.1 204.5 373.6 206.2C372.1 207.9 371.3 210.3 371.3 213.4C371.3 216.6 372 219 373.5 220.6C375 222.3 377.3 223.1 380.4 223.1C381.5 223.1 382.6 223 383.6 222.8C384.6 222.6 385.7 222.3 386.6 221.9L385.9 223.5V215.1H379.7V212.6H388.7V224.1C388 224.4 387.2 224.8 386.2 225C385.3 225.3 384.3 225.5 383.2 225.6C382.2 226.1 381.2 226.2 380.2 226.2Z" fill="black"/>
<path d="M403.1 225.9V201.2H405.6L421.1 221.6H420.3V201.2H423.3V225.9H420.8L405.3 205.5H406.1V225.9H403.1Z" fill="black"/>
<path d="M786.911 135.6C790.832 135.6 794.011 132.421 794.011 128.5C794.011 124.579 790.832 121.4 786.911 121.4C782.99 121.4 779.811 124.579 779.811 128.5C779.811 132.421 782.99 135.6 786.911 135.6Z" fill="black"/>
</g>
<defs>
<clipPath id="clip0_1_55">
<rect width="983" height="281" fill="white"/>
</clipPath>
</defs>
</svg>
